<svg width="100%" height="100%" xmlns="http://www.w3.org/2000/svg" viewBox="0 0 115 58">
<style> .small { font: 2px sans-serif; }</style>
<text x="10" y="4" fill="blue" class = "small"> section01 -- equipe 020304 -- Crazy Frog </text>
<rect x = "10" y = "5" width = "96" height = "48" stroke = "black" stroke-width = ".2" fill = "white" />
<rect x = "19" y = "45" width = "1" height = "1" stroke = "red" stroke-width = ".2" fill = "red"/>
<rect x = "30" y = "45" width = "1" height = "1" stroke = "black" stroke-width = ".2" fill = "black"/>
<rect x = "41" y = "45" width = "1" height = "1" stroke = "black" stroke-width = ".2" fill = "black"/>
<rect x = "52" y = "45" width = "1" height = "1" stroke = "black" stroke-width = ".2" fill = "black"/>
<rect x = "63" y = "45" width = "1" height = "1" stroke = "black" stroke-width = ".2" fill = "black"/>
<rect x = "74" y = "45" width = "1" height = "1" stroke = "black" stroke-width = ".2" fill = "black"/>
<rect x = "85" y = "45" width = "1" height = "1" stroke = "black" stroke-width = ".2" fill = "black"/>
<rect x = "96" y = "45" width = "1" height = "1" stroke = "black" stroke-width = ".2" fill = "black"/>
<rect x = "19" y = "34" width = "1" height = "1" stroke = "black" stroke-width = ".2" fill = "black"/>
<rect x = "30" y = "34" width = "1" height = "1" stroke = "black" stroke-width = ".2" fill = "black"/>
<rect x = "41" y = "34" width = "1" height = "1" stroke = "black" stroke-width = ".2" fill = "black"/>
<rect x = "52" y = "34" width = "1" height = "1" stroke = "black" stroke-width = ".2" fill = "black"/>
<rect x = "63" y = "34" width = "1" height = "1" stroke = "black" stroke-width = ".2" fill = "black"/>
<rect x = "74" y = "34" width = "1" height = "1" stroke = "black" stroke-width = ".2" fill = "black"/>
<rect x = "85" y = "34" width = "1" height = "1" stroke = "black" stroke-width = ".2" fill = "black"/>
<rect x = "96" y = "34" width = "1" height = "1" stroke = "black" stroke-width = ".2" fill = "black"/>
<rect x = "19" y = "23" width = "1" height = "1" stroke = "black" stroke-width = ".2" fill = "black"/>
<rect x = "30" y = "23" width = "1" height = "1" stroke = "black" stroke-width = ".2" fill = "black"/>
<rect x = "41" y = "23" width = "1" height = "1" stroke = "black" stroke-width = ".2" fill = "black"/>
<rect x = "52" y = "23" width = "1" height = "1" stroke = "black" stroke-width = ".2" fill = "black"/>
<rect x = "63" y = "23" width = "1" height = "1" stroke = "black" stroke-width = ".2" fill = "black"/>
<rect x = "74" y = "23" width = "1" height = "1" stroke = "black" stroke-width = ".2" fill = "black"/>
<rect x = "85" y = "23" width = "1" height = "1" stroke = "black" stroke-width = ".2" fill = "black"/>
<rect x = "96" y = "23" width = "1" height = "1" stroke = "black" stroke-width = ".2" fill = "black"/>
<rect x = "19" y = "12" width = "1" height = "1" stroke = "black" stroke-width = ".2" fill = "black"/>
<rect x = "30" y = "12" width = "1" height = "1" stroke = "black" stroke-width = ".2" fill = "black"/>
<rect x = "41" y = "12" width = "1" height = "1" stroke = "black" stroke-width = ".2" fill = "black"/>
<rect x = "52" y = "12" width = "1" height = "1" stroke = "black" stroke-width = ".2" fill = "black"/>
<rect x = "63" y = "12" width = "1" height = "1" stroke = "black" stroke-width = ".2" fill = "black"/>
<rect x = "74" y = "12" width = "1" height = "1" stroke = "black" stroke-width = ".2" fill = "black"/>
<rect x = "85" y = "12" width = "1" height = "1" stroke = "black" stroke-width = ".2" fill = "black"/>
<rect x = "96" y = "12" width = "1" height = "1" stroke = "black" stroke-width = ".2" fill = "black"/>
<circle cx = "19" cy = "23" r = "1.5" stroke = "black" stroke-width = ".2" fill = "gray" />
<circle cx = "30" cy = "23" r = "1.5" stroke = "black" stroke-width = ".2" fill = "gray" />
<circle cx = "41" cy = "12" r = "1.5" stroke = "black" stroke-width = ".2" fill = "gray" />
<circle cx = "63" cy = "12" r = "1.5" stroke = "black" stroke-width = ".2" fill = "gray" />
<circle cx = "85" cy = "12" r = "1.5" stroke = "black" stroke-width = ".2" fill = "gray" />
<circle cx = "96" cy = "34" r = "1.5" stroke = "black" stroke-width = ".2" fill = "gray" />
<polygon points= "96, 34 85, 12 63, 12 41, 12 19, 23 " fill = "rgba(0, 255, 0, 0.25)" stroke = "black" stroke-width = ".2" />
<text x="10" y="56" fill="blue" class="small" > Aire: 1028 pouces carres </text></svg>